<svg xmlns="http://www.w3.org/2000/svg" version="1.1" xmlns:xlink="http://www.w3.org/1999/xlink" width="512" height="512" x="0" y="0" viewBox="0 0 512 512" style="enable-background:new 0 0 512 512" xml:space="preserve"><g><path d="m341.588 113.47-236.817 48.467c-13.136-17.321-39.916-56.772-27.426-75.694 12.582-19.06 68.881-.611 93.949 8.799 10.617-4.076 24.65-7.722 40.904-10.971 16.223-3.401 30.542-5.56 41.906-5.984 19.352-18.504 63.87-57.596 82.931-45.014 18.941 12.487 9.825 59.307 4.553 80.397z" style="" fill="#b1b9c6" data-original="#b1b9c6"></path><path d="M100.384 165.278C84.047 143.738 58.733 104.43 72.747 83.2c6.881-10.424 22.54-13.257 47.868-8.659 18.787 3.411 38.986 10.233 52.621 15.355l-3.877 10.317c-46.068-17.305-80.378-21.6-87.415-10.94-7.282 11.032 3.149 37.605 27.221 69.347l-8.781 6.658zM346.935 114.794l-10.694-2.663c9.631-38.662 8.771-67.195-2.243-74.466-10.676-7.043-40.537 10.387-76.079 44.414l-7.622-7.961c29.589-28.328 69.187-59.237 89.773-45.651 9.924 6.552 14.572 20.605 13.813 41.771-.576 16.087-4.096 33.109-6.948 44.556z" style="" fill="#678490" data-original="#678490"></path><path d="M239.653 218.171C117.172 243.251 12.5 237.277 5.849 204.839 1.035 181.31 49.097 150.317 122.588 125.5l-11.232 2.301c5.109-71.422 44.8-81.587 91.151-91.077 46.341-9.49 86.833-15.739 119.599 47.924l-11.221 2.301c77.322-6.059 133.691 3.547 138.515 27.076 6.64 32.439-87.266 79.065-209.747 104.146z" style="" fill="#d4afb7" data-original="#d4afb7"></path><path d="M454.795 112.916c-4.821-23.545-45.375-30.742-78.546-32.633-15.342-.876-32.201-.82-50.147.127-15.635-29.683-33.884-46.388-57.318-52.49-20.663-5.381-42.742-1.643-67.379 3.402-24.646 5.047-46.422 10.288-63.311 23.357-19.152 14.821-29.368 37.354-32.079 70.793-16.874 6.182-32.398 12.757-46.162 19.592C30.094 159.84-4.367 182.397.454 205.942c4.821 23.545 45.374 30.742 78.545 32.633 7.287.416 14.91.621 22.835.621 40.602 0 88.982-5.401 138.923-15.626 59.691-12.222 114.608-29.899 154.639-49.776 29.758-14.776 64.219-37.333 59.399-60.878zM144.839 63.395c15.043-11.64 34.676-16.34 58.778-21.275 24.094-4.934 43.989-8.327 62.391-3.534 19.096 4.972 34.452 18.575 47.967 42.592-31.034 2.261-64.879 7.025-99.484 14.109-34.604 7.085-67.596 16.007-97.021 26.124 2.989-27.396 11.763-45.94 27.369-58.016zm245.655 100.528c-39.201 19.465-93.164 36.813-151.948 48.848-58.785 12.037-115.223 17.292-158.92 14.8-40.227-2.295-65.788-11.207-68.374-23.842-2.587-12.634 17.414-30.875 53.502-48.796 39.201-19.465 93.164-36.813 151.948-48.849 52.392-10.728 99.228-15.372 136.591-15.372 53.569 0 87.661 9.551 90.704 24.414 2.587 12.636-17.413 30.877-53.503 48.797z" style="" fill="#b78e98" data-original="#b78e98"></path><path d="M384.123 269.143c-12.582 24.676-39.652 34.22-58.551 12.379 27.317-12.349 45.146-39.063 46.155-69.141.526-15.72-.754-31.07-3.826-46.073-2.85-13.919-8.633-29.099-18.375-42.916-83.481-2.482-172.324 15.689-248.147 50.807-3.548 16.537-2.88 32.765-.031 46.684 3.072 15.003 7.926 29.621 14.588 43.87 13.004 27.808 40.725 45.531 71.421 45.467a361.296 361.296 0 0 0 15.683-.397 67.152 67.152 0 0 0-3.47 12.992c-5.184 12.666-15.885 23.325-36.896 23.325l35.14 44.952s8.8-4.086 18.844-11.423c13.01 14.206 31.95 23.162 53.047 23.162 34.604 0 63.414-24.074 69.733-55.94 33.168 4.905 58.182-45.387 58.182-45.387l-13.497-32.361z" style="" fill="#b1b9c6" data-original="#b1b9c6"></path><path d="M245.737 339.132a5.506 5.506 0 0 0-6.727 3.934c-5.399 20.617-30.052 35.805-39.667 41.039l-26.094-33.385c18.087-3.344 30.074-15.666 34.454-35.607a357.934 357.934 0 0 0 19.791-1.697 5.511 5.511 0 0 0 4.851-6.1c-.344-3.023-3.077-5.182-6.1-4.851a352.084 352.084 0 0 1-38.9 2.243c-28.283.071-54.376-16.542-66.418-42.29-6.435-13.765-11.206-28.111-14.182-42.64-2.113-10.324-3.825-26.41.022-44.429a5.51 5.51 0 0 0-4.239-6.54 5.507 5.507 0 0 0-6.54 4.239c-3.359 15.736-3.373 32.66-.041 48.94 3.15 15.377 8.195 30.55 14.996 45.098 13.828 29.566 43.742 48.643 76.255 48.643h.172a369.18 369.18 0 0 0 8.865-.135c-4.579 16.612-15.84 25.03-33.564 25.03a5.511 5.511 0 0 0-4.341 8.904l35.138 44.957a5.504 5.504 0 0 0 6.66 1.605c1.692-.785 41.513-19.571 49.542-50.233a5.508 5.508 0 0 0-3.933-6.725zM402.703 299.379l-13.496-32.353a5.511 5.511 0 0 0-4.876-3.385c-2.182-.092-4.145 1.091-5.12 3.004-6.182 12.127-16.101 20.125-26.534 21.395-6.287.769-12.31-1.001-17.714-5.141 25.003-14.363 41.287-41.001 42.272-70.333.536-16.055-.788-31.99-3.935-47.361-3.333-16.279-9.996-31.834-19.271-44.986a5.513 5.513 0 0 0-7.68-1.328 5.513 5.513 0 0 0-1.328 7.68c10.62 15.058 15.368 30.523 17.48 40.845 2.975 14.525 4.226 29.592 3.718 44.782-.953 28.41-18.402 53.921-44.45 64.99a355.048 355.048 0 0 1-22.291 8.592 5.511 5.511 0 0 0 3.612 10.413 366.409 366.409 0 0 0 21.122-8.087c8.534 8.339 18.977 12.202 29.796 10.876 10.972-1.335 21.347-7.837 29.106-17.929l8.41 20.161c-4.236 7.656-19.665 33.271-39.456 39.269-7.665 2.323-14.986 1.394-22.383-2.836a5.51 5.51 0 1 0-5.471 9.567c6.445 3.686 13.062 5.533 19.774 5.533 3.744 0 7.517-.574 11.305-1.725 27.781-8.44 46.477-45.494 47.258-47.067a5.516 5.516 0 0 0 .152-4.576z" style="" fill="#678490" data-original="#678490"></path><path d="M312.175 218.148a5.513 5.513 0 0 1-1.099-10.911l23.623-4.837a5.512 5.512 0 0 1 2.212 10.799l-23.623 4.837a5.581 5.581 0 0 1-1.113.112zM336.059 236.383c-.279 0-.562-.022-.845-.066l-20.794-3.201a5.51 5.51 0 0 1 1.677-10.893l20.794 3.201a5.51 5.51 0 0 1-.832 10.959zM147.169 251.932a5.511 5.511 0 0 1-1.099-10.91l23.623-4.839a5.51 5.51 0 1 1 2.212 10.797l-23.623 4.838a5.441 5.441 0 0 1-1.113.114zM156.018 273.244a5.512 5.512 0 0 1-2.917-10.191l17.863-11.116a5.512 5.512 0 0 1 5.824 9.358l-17.863 11.116a5.486 5.486 0 0 1-2.907.833z" style="" fill="#91a2b5" data-original="#91a2b5"></path><path d="M264.802 170.482a5.513 5.513 0 0 1-1.1-10.911l12.393-2.537a5.51 5.51 0 0 1 6.505 4.294 5.513 5.513 0 0 1-4.294 6.505l-12.393 2.537a5.554 5.554 0 0 1-1.111.112zM183.226 187.184a5.513 5.513 0 0 1-1.099-10.911l12.393-2.537a5.512 5.512 0 1 1 2.211 10.798l-12.393 2.537a5.5 5.5 0 0 1-1.112.113z" style="" fill="#ffffff" data-original="#ffffff"></path><path d="M263.016 197.912c-3.005-.13-5.614 2.222-5.749 5.263a7.466 7.466 0 0 1-5.975 6.988 7.453 7.453 0 0 1-5.631-1.087 7.435 7.435 0 0 1-3.211-4.743h.001l-.316-1.546 1.235-.253a5.512 5.512 0 0 0-2.212-10.799l-13.268 2.716a5.513 5.513 0 0 0 2.208 10.798l1.236-.253.316 1.546h.001v.001a7.436 7.436 0 0 1-1.088 5.623 7.434 7.434 0 0 1-4.745 3.21 7.465 7.465 0 0 1-8.248-4.075 5.51 5.51 0 0 0-9.933 4.775 18.468 18.468 0 0 0 20.393 10.097 18.381 18.381 0 0 0 11.662-7.831 18.408 18.408 0 0 0 13.808 2.617 18.475 18.475 0 0 0 14.777-17.3 5.508 5.508 0 0 0-5.261-5.747z" style="" fill="#678490" data-original="#678490"></path><path d="M162.155 223.734a5.51 5.51 0 0 1-4.594-8.548c8.573-12.987 26.113-16.578 39.098-8.004a5.51 5.51 0 1 1-6.072 9.198c-7.913-5.222-18.603-3.036-23.828 4.879a5.509 5.509 0 0 1-4.604 2.475zM279.475 199.714a5.51 5.51 0 0 1-4.594-8.548c8.571-12.985 26.112-16.576 39.097-8.005a5.51 5.51 0 0 1 1.564 7.634 5.508 5.508 0 0 1-7.634 1.564c-7.915-5.222-18.604-3.035-23.829 4.88a5.513 5.513 0 0 1-4.604 2.475z" style="" fill="#605c5d" data-original="#605c5d"></path><path d="M76.123 192.294a5.51 5.51 0 0 1-2.612-10.367c8.042-4.319 16.639-8.602 25.552-12.728 76.882-35.609 165.9-53.845 250.626-51.313 9.418.278 18.996.838 28.468 1.662a5.511 5.511 0 0 1 5.012 5.969 5.5 5.5 0 0 1-5.969 5.012 488.304 488.304 0 0 0-27.837-1.626c-83.052-2.476-170.306 15.393-245.669 50.298-8.717 4.036-17.118 8.22-24.968 12.437a5.507 5.507 0 0 1-2.603.656z" style="" fill="#b78e98" data-original="#b78e98"></path><path d="M340.394 81.956c-5.641-.783-10.848 3.155-11.63 8.796l-6.423 46.293 20.427 2.834 6.423-46.293c.782-5.64-3.156-10.847-8.797-11.63zM379.694 87.409c-5.641-.783-10.848 3.155-11.63 8.796l-6.423 46.293 20.427 2.834 6.423-46.293c.781-5.64-3.157-10.847-8.797-11.63zM418.993 92.862c-5.641-.783-10.848 3.155-11.63 8.796l-6.423 46.293 20.426 2.834 6.423-46.292c.783-5.641-3.155-10.848-8.796-11.631zM458.293 98.315c-5.641-.783-10.848 3.156-11.63 8.796l-6.423 46.293 20.426 2.834 6.423-46.293c.782-5.64-3.156-10.847-8.796-11.63zM497.592 103.768c-5.641-.783-10.848 3.156-11.63 8.796l-6.423 46.293 20.426 2.834 6.423-46.293c.783-5.64-3.155-10.847-8.796-11.63z" style="" fill="#ffffff" data-original="#ffffff"></path><path d="m348.226 140.636-10.918-1.515 6.424-46.293a4.806 4.806 0 0 0-4.095-5.414 4.806 4.806 0 0 0-5.415 4.095l-6.423 46.293-10.918-1.515 6.423-46.293c1.2-8.641 9.196-14.7 17.847-13.498 8.641 1.2 14.695 9.204 13.498 17.845l-6.423 46.295zM387.526 146.089l-10.918-1.515 6.423-46.292a4.805 4.805 0 0 0-4.094-5.415 4.805 4.805 0 0 0-5.415 4.095l-6.424 46.293-10.918-1.515 6.424-46.293c1.199-8.642 9.197-14.694 17.847-13.498 8.641 1.2 14.695 9.205 13.497 17.847l-6.422 46.293zM426.824 151.542l-10.918-1.515 6.424-46.292a4.805 4.805 0 0 0-4.095-5.415 4.778 4.778 0 0 0-3.555.926 4.768 4.768 0 0 0-1.859 3.169l-6.424 46.293-10.918-1.515 6.424-46.293a15.72 15.72 0 0 1 6.128-10.445 15.746 15.746 0 0 1 11.718-3.053c8.642 1.2 14.696 9.205 13.498 17.847l-6.423 46.293zM466.124 156.996l-10.918-1.515 6.423-46.293a4.77 4.77 0 0 0-.926-3.556 4.772 4.772 0 0 0-3.169-1.859 4.766 4.766 0 0 0-3.555.926 4.77 4.77 0 0 0-1.859 3.169l-6.424 46.293-10.918-1.515 6.424-46.293a15.72 15.72 0 0 1 6.128-10.445 15.718 15.718 0 0 1 11.718-3.053 15.72 15.72 0 0 1 10.445 6.128 15.725 15.725 0 0 1 3.053 11.719l-6.422 46.294zM505.424 162.449l-10.918-1.515 6.424-46.293a4.805 4.805 0 0 0-4.095-5.415 4.805 4.805 0 0 0-5.415 4.095l-6.423 46.293-10.917-1.514 6.423-46.293c1.2-8.641 9.201-14.696 17.846-13.498a15.72 15.72 0 0 1 10.446 6.128 15.725 15.725 0 0 1 3.053 11.719l-6.424 46.293z" style="" fill="#e3e3e3" data-original="#e3e3e3"></path><path d="M409.46 161.568c-5.641-.783-10.848 3.155-11.63 8.796l-34.982 252.112c-.783 5.641 3.155 10.848 8.796 11.63 5.641.783 10.848-3.155 11.63-8.796l34.982-252.112c.783-5.64-3.156-10.847-8.796-11.63z" style="" fill="#ffbf8c" data-original="#ffbf8c"></path><path d="M373.093 439.719c-.732 0-1.47-.051-2.207-.153a15.72 15.72 0 0 1-10.445-6.128 15.725 15.725 0 0 1-3.053-11.719l34.983-252.112a15.715 15.715 0 0 1 6.127-10.445 15.725 15.725 0 0 1 11.719-3.053 15.72 15.72 0 0 1 10.445 6.128 15.725 15.725 0 0 1 3.053 11.719l-34.983 252.112a15.72 15.72 0 0 1-6.128 10.445 15.7 15.7 0 0 1-9.511 3.206zm34.939-272.739a4.763 4.763 0 0 0-2.885.973 4.766 4.766 0 0 0-1.858 3.168l-34.983 252.113a4.77 4.77 0 0 0 .926 3.556 4.772 4.772 0 0 0 3.169 1.859 4.754 4.754 0 0 0 3.555-.926 4.766 4.766 0 0 0 1.859-3.169l34.983-252.112a4.77 4.77 0 0 0-.926-3.556 4.772 4.772 0 0 0-3.169-1.859 4.916 4.916 0 0 0-.671-.047z" style="" fill="#ff9d6f" data-original="#ff9d6f"></path><path d="m480.324 190.573-146.949-20.39c-8.471-1.175-14.385-8.995-13.209-17.466l2.175-15.673 177.624 24.647-2.175 15.673c-1.175 8.471-8.995 14.385-17.466 13.209z" style="" fill="#777677" data-original="#777677"></path><path d="M482.466 196.233a21.11 21.11 0 0 1-2.899-.201l-146.949-20.39c-11.467-1.593-19.501-12.216-17.911-23.683l2.175-15.672a5.507 5.507 0 0 1 6.216-4.701l177.624 24.646a5.515 5.515 0 0 1 4.702 6.216l-2.175 15.673c-1.456 10.493-10.476 18.112-20.783 18.112zm-1.384-11.118a9.913 9.913 0 0 0 7.387-1.924 9.912 9.912 0 0 0 3.862-6.584l1.418-10.215-166.707-23.131-1.417 10.213c-.756 5.447 3.061 10.495 8.509 11.251l146.948 20.39z" style="" fill="#605c5d" data-original="#605c5d"></path><path d="m145.665 373.019-.001-.004c0-10.577 26.632-19.152 59.485-19.152 32.853 0 59.485 8.575 59.485 19.152v.002a6.4 6.4 0 0 1-.239 1.644l-13.36 91.89c0 8.159-20.544 14.773-45.885 14.773-25.342 0-45.885-6.615-45.885-14.773L145.9 374.639c-.139-.534-.235-1.073-.235-1.62z" style="" fill="#777677" data-original="#777677"></path><path d="M205.149 386.721c-13.988 0-27.211-1.484-38.238-4.293a5.51 5.51 0 1 1 2.721-10.68c10.007 2.549 22.62 3.953 35.518 3.953 13.941 0 27.328-1.611 37.695-4.537a5.505 5.505 0 0 1 6.8 3.806 5.51 5.51 0 0 1-3.806 6.8c-11.315 3.192-25.765 4.951-40.69 4.951z" style="" fill="#605c5d" data-original="#605c5d"></path><path d="M205.149 486.836c-24.475 0-50.798-6.204-51.386-19.817l-13.279-91.321a11.772 11.772 0 0 1-.33-2.534l-.002-.149c0-5.451 3.686-13.135 21.244-18.788 11.767-3.789 27.305-5.875 43.752-5.875 16.447 0 31.985 2.086 43.752 5.875 17.558 5.654 21.244 13.337 21.244 18.788l-.002.147a11.624 11.624 0 0 1-.336 2.57l-13.272 91.288c-.586 13.612-26.909 19.816-51.385 19.816zm-40.375-20.384c1.049 2.711 14.389 9.363 40.375 9.363s39.327-6.652 40.376-9.363c.004-.232.022-.463.057-.693l13.36-91.89c.03-.208.072-.415.126-.618.044-.165.054-.244.056-.26-.042-1.3-3.389-4.984-13.602-8.273-10.704-3.446-25.043-5.344-40.373-5.344-15.33 0-29.669 1.898-40.373 5.344-10.184 3.279-13.541 6.952-13.6 8.262v.006c.004.028.017.111.058.269.051.195.091.392.119.592l13.365 91.912c.034.229.052.461.056.693zm-13.598-93.433h.01-.01z" style="" fill="#605c5d" data-original="#605c5d"></path><path d="M398.033 241.863c-15.18 0-27.485 12.306-27.485 27.485 0 15.18 12.305 27.485 27.485 27.485s20.428-12.306 20.428-27.485-5.248-27.485-20.428-27.485z" style="" fill="#b1b9c6" data-original="#b1b9c6"></path><path d="M398.033 302.345c-18.194 0-32.997-14.802-32.997-32.997 0-18.193 14.802-32.995 32.997-32.995 16.484 0 25.939 12.026 25.939 32.995s-9.455 32.997-25.939 32.997zm0-54.971c-12.117 0-21.975 9.858-21.975 21.974 0 12.117 9.858 21.975 21.975 21.975 3.69 0 14.917 0 14.917-21.975.001-21.974-11.227-21.974-14.917-21.974z" style="" fill="#678490" data-original="#678490"></path><path d="M155.772 366.075c8.37 12.664 25.421 16.144 38.085 7.774 12.663-8.37 16.144-25.421 7.774-38.085-8.37-12.663-21.53-10.257-34.193-1.887-12.665 8.371-20.037 19.535-11.666 32.198z" style="" fill="#b1b9c6" data-original="#b1b9c6"></path><path d="M178.768 383.926c-2.215 0-4.446-.224-6.666-.677-8.636-1.763-16.068-6.783-20.927-14.136-4.947-7.484-5.813-15.424-2.504-22.962 2.658-6.053 7.949-11.729 15.728-16.87 17.49-11.562 32.739-10.308 41.829 3.444 4.86 7.353 6.565 16.158 4.803 24.793-1.763 8.636-6.784 16.068-14.137 20.928-5.461 3.61-11.725 5.48-18.126 5.48zm7.504-51.484c-3.867 0-8.996 1.538-15.796 6.033-18.332 12.117-12.142 21.484-10.107 24.562a21.837 21.837 0 0 0 13.937 9.414c5.757 1.173 11.616.037 16.511-3.199a21.835 21.835 0 0 0 9.415-13.937 21.833 21.833 0 0 0-3.198-16.512c-1.28-1.936-4.205-6.361-10.762-6.361z" style="" fill="#678490" data-original="#678490"></path></g></svg>